<svg width="1300" height="1300" viewBox="0 0 1300 1300" fill="none" xmlns="http://www.w3.org/2000/svg">
<path d="M0 0H1300V1300H0V0Z" fill="#FF914D"/>
<path d="M382.98 577.696H383.744C381.452 557.068 379.16 537.968 378.396 516.576V188.82H399.788V615.896H379.16L265.324 285.848C260.74 270.568 255.392 249.176 250.808 231.604H250.044C252.336 250.704 254.628 272.86 255.392 286.612V615.896H234V188.82H254.628L366.172 516.576C372.284 538.732 377.632 557.832 382.98 577.696Z" fill="#F4F1DE"/>
<path d="M658.474 620.48C608.05 620.48 578.254 582.28 578.254 534.148V270.568C578.254 225.492 605.758 185 658.474 185C707.37 185 736.402 223.964 736.402 270.568V533.384C736.402 578.46 710.426 620.48 658.474 620.48ZM658.474 204.864C618.746 204.864 599.646 234.66 599.646 270.568V534.148C599.646 568.528 618.746 599.088 658.474 599.088C697.438 599.088 715.01 569.292 715.01 533.384V270.568C715.01 238.48 698.202 204.864 658.474 204.864Z" fill="#F4F1DE"/>
<path d="M980.237 589.92H981.765L1000.1 450.108L1040.59 188.056H1061.98L995.517 615.896H966.485L902.309 188.056H922.937L962.665 450.108L980.237 589.92Z" fill="#F4F1DE"/>
<path d="M743.516 1043.32V1115.9H721.36V1043.32C721.36 1018.87 705.316 1002.06 677.812 1002.06H610.58V1115.9H588.424V688.82H661.768C698.44 688.82 740.46 710.976 740.46 772.096V918.02C740.46 943.232 728.236 975.32 698.44 987.544C729.764 994.42 743.516 1017.34 743.516 1043.32ZM610.58 708.684V982.196H661.768C686.98 982.196 719.832 958.512 719.832 918.02V772.096C719.832 733.132 696.912 708.684 661.768 708.684H610.58Z" fill="#F4F1DE"/>
<path d="M371.476 999.948L389.048 1116.08H410.44L343.208 689H315.704L250 1116.08H270.628L288.964 999.948L329.456 725.672L371.476 999.948Z" fill="#F4F1DE"/>
<path d="M1023.48 999.948L1041.05 1116.08H1062.44L995.208 689H967.704L902 1116.08H922.628L940.964 999.948L981.456 725.672L1023.48 999.948Z" fill="#F4F1DE"/>
</svg>
